<svg width="29" height="29" viewBox="0 0 29 29" fill="none" xmlns="http://www.w3.org/2000/svg">
<path fill-rule="evenodd" clip-rule="evenodd" d="M0 14.5C0 6.49187 6.49187 0 14.5 0C22.5081 0 29 6.49187 29 14.5C29 22.5081 22.5081 29 14.5 29C6.49187 29 0 22.5081 0 14.5ZM7.25 14.6518C7.25 10.661 10.487 7.424 14.4778 7.424C18.4687 7.424 21.7056 10.661 21.75 14.6518C21.75 17.8445 19.7102 20.5494 16.828 21.5249C16.4732 21.5693 16.3402 21.3475 16.3402 21.1702V19.1748C16.3402 18.5096 16.1185 18.0662 15.8525 17.8445C17.4488 17.6671 19.1338 17.0907 19.1338 14.2971C19.1338 13.4989 18.8234 12.8338 18.38 12.346C18.3835 12.3321 18.3883 12.3146 18.3942 12.2937C18.462 12.0488 18.659 11.3382 18.2913 10.4393C18.2913 10.4393 17.6705 10.2619 16.2959 11.1931C15.7194 11.0601 15.0986 10.9714 14.4778 10.9714C13.857 10.9714 13.2363 11.0157 12.6598 11.1931C11.2851 10.2619 10.6644 10.4393 10.6644 10.4393C10.2725 11.3973 10.522 12.1415 10.5731 12.2939L10.5757 12.3017C10.0879 12.8338 9.82184 13.4546 9.82184 14.2527C9.82184 17.0463 11.5069 17.6671 13.1032 17.8445C12.9258 18.0219 12.7041 18.3323 12.6598 18.82C12.2607 18.9974 11.2408 19.3078 10.5757 18.1992C10.5757 18.1992 10.1766 17.4897 9.46712 17.4454C9.46712 17.4454 8.75767 17.4454 9.42281 17.8888C9.42281 17.8888 9.91056 18.1105 10.2209 18.9531C10.2209 18.9531 10.6644 20.372 12.6598 19.9286V21.1702C12.6598 21.3475 12.5268 21.5693 12.172 21.5249C9.33409 20.5494 7.25 17.8445 7.25 14.6518Z" fill="#102032"/>
</svg>
