<svg width="29" height="29" viewBox="0 0 29 29" fill="none" xmlns="http://www.w3.org/2000/svg">
<path fill-rule="evenodd" clip-rule="evenodd" d="M0 14.5C0 6.49187 6.49187 0 14.5 0C22.5081 0 29 6.49187 29 14.5C29 22.5081 22.5081 29 14.5 29C6.49187 29 0 22.5081 0 14.5ZM7.43125 12.0531V21.75H10.5125V12.0531H7.43125ZM7.25 8.97188C7.25 9.96875 7.975 10.6938 8.97188 10.6938C9.96875 10.6938 10.6938 9.96875 10.6938 8.97188C10.6938 7.975 9.96875 7.25 8.97188 7.25C8.06563 7.25 7.25 7.975 7.25 8.97188ZM18.6688 21.75H21.5688V15.7688C21.5688 12.7781 19.7562 11.7812 18.0344 11.7812C16.4937 11.7812 15.4062 12.7781 15.1344 13.4125V12.0531H12.2344V21.75H15.3156V16.5844C15.3156 15.225 16.2219 14.5 17.1281 14.5C18.0344 14.5 18.6688 14.9531 18.6688 16.4937V21.75Z" fill="#102032"/>
</svg>
