<svg width="29" height="29" viewBox="0 0 29 29" fill="none" xmlns="http://www.w3.org/2000/svg">
<path fill-rule="evenodd" clip-rule="evenodd" d="M0 14.5C0 6.49187 6.49187 0 14.5 0C22.5081 0 29 6.49187 29 14.5C29 22.5081 22.5081 29 14.5 29C6.49187 29 0 22.5081 0 14.5ZM20.0281 10.4219C20.6625 10.3312 21.2062 10.2406 21.75 9.96875C21.3875 10.6031 20.8438 11.1469 20.2094 11.5094C20.3906 15.7687 17.3094 20.3906 11.7812 20.3906C10.15 20.3906 8.60938 19.8469 7.25 19.0312C8.79062 19.2125 10.4219 18.7594 11.5094 17.9437C10.15 17.9437 9.0625 17.0375 8.7 15.8594C9.15313 15.95 9.60625 15.8594 10.0594 15.7687C8.7 15.4062 7.70312 14.1375 7.70312 12.7781C8.15625 12.9594 8.60938 13.1406 9.0625 13.1406C7.79375 12.2344 7.34063 10.5125 8.15625 9.15313C9.69687 10.9656 11.8719 12.1437 14.3188 12.2344C13.8656 10.4219 15.3156 8.60938 17.2188 8.60938C18.0344 8.60938 18.85 8.97187 19.3937 9.51562C20.1187 9.33438 20.7531 9.15312 21.2969 8.79062C21.1156 9.51562 20.6625 10.0594 20.0281 10.4219Z" fill="#102032"/>
</svg>
