<svg width="29" height="29" viewBox="0 0 29 29" fill="none" xmlns="http://www.w3.org/2000/svg">
<path fill-rule="evenodd" clip-rule="evenodd" d="M11.4188 19.6656C12.325 20.2094 13.4125 20.4812 14.5 20.4812C17.8531 20.4812 20.4813 17.7625 20.4813 14.5906C20.4813 12.9594 19.9375 11.5094 18.7594 10.3313C17.5813 9.24375 16.1313 8.60938 14.5 8.60938C11.2375 8.60938 8.51874 11.3281 8.51874 14.5906C8.51874 15.6781 8.79062 16.7656 9.42499 17.7625L9.60626 18.0344L8.97187 20.2094L11.2375 19.575L11.4188 19.6656ZM16.4938 15.4062C16.675 15.4062 17.5813 15.8594 17.7625 15.95C17.7907 15.9641 17.819 15.976 17.8468 15.9878C17.998 16.0516 18.1391 16.1112 18.2156 16.4937C18.3063 16.4937 18.3062 16.8562 18.125 17.3094C18.0344 17.6719 17.3094 18.125 16.9469 18.125C16.8855 18.125 16.8267 18.1302 16.7638 18.1358C16.4558 18.163 16.0515 18.1988 14.7719 17.6719C13.1837 17.0366 12.0826 15.4968 11.7734 15.0644C11.7297 15.0033 11.7018 14.9643 11.6906 14.9531C11.6752 14.9223 11.644 14.873 11.6029 14.8081C11.4024 14.4915 10.9656 13.8019 10.9656 13.05C10.9656 12.1438 11.4187 11.6906 11.6 11.5094C11.7812 11.3281 11.9625 11.3281 12.0531 11.3281H12.4156C12.5063 11.3281 12.6875 11.3281 12.7781 11.6C12.9594 11.9625 13.3219 12.8687 13.3219 12.9594C13.3219 12.9896 13.332 13.0198 13.342 13.05C13.3622 13.1104 13.3823 13.1708 13.3219 13.2312C13.2766 13.2766 13.2539 13.3219 13.2313 13.3672C13.2086 13.4125 13.1859 13.4578 13.1406 13.5031L12.8688 13.775C12.7781 13.8656 12.6875 13.9563 12.7781 14.1375C12.8688 14.3188 13.2313 14.9531 13.775 15.4062C14.3868 15.9416 14.8696 16.1542 15.1143 16.262C15.1596 16.282 15.1967 16.2984 15.225 16.3125C15.4062 16.3125 15.4969 16.3125 15.5875 16.2219C15.6328 16.1313 15.7461 15.9953 15.8594 15.8594C15.9726 15.7234 16.0859 15.5875 16.1312 15.4969C16.2219 15.3156 16.3125 15.3156 16.4938 15.4062Z" fill="#102032"/>
<path fill-rule="evenodd" clip-rule="evenodd" d="M0 14.5C0 6.49187 6.49187 0 14.5 0C22.5081 0 29 6.49187 29 14.5C29 22.5081 22.5081 29 14.5 29C6.49187 29 0 22.5081 0 14.5ZM14.5 7.25C16.4031 7.25 18.2156 7.975 19.575 9.33438C20.9344 10.6938 21.75 12.5063 21.75 14.4094C21.75 18.3969 18.4875 21.6594 14.5 21.6594C13.3219 21.6594 12.1438 21.2969 11.0563 20.7531L7.25 21.75L8.24688 18.125C7.61251 17.0375 7.25 15.7688 7.25 14.5C7.25 10.5125 10.5125 7.25 14.5 7.25Z" fill="#102032"/>
</svg>
